<svg xmlns="http://www.w3.org/2000/svg" viewBox="0 0 350 350"><linearGradient id="a" x1="51.2563" x2="298.7437" y1="298.7437" y2="51.2563" gradientUnits="userSpaceOnUse"><stop offset="0" stop-color="#2c46f3"/><stop offset="1" stop-color="#240074"/></linearGradient><circle cx="175" cy="175" r="175" fill="url(#a)"/><path fill="#fff" d="M114.3 89.9h121.3c13.6 0 24.7 11.1 24.7 24.8v120.7c0 13.6-11.1 24.7-24.7 24.8H114.3c-13.6 0-24.8-11.1-24.8-24.8V114.6c0-13.7 11.1-24.7 24.8-24.7zm61.5 28.1c-4.7 0-9.5.6-14.1 2.1-4.2 1.3-8.2 3.4-11.6 6.2-3.4 2.9-6.3 6.3-8.4 10.4-2.4 4.5-4 9.3-4.6 14.3l10.2 1.8 2.7.3c1.6.1 3.1-.4 4.4-1.3 1.1-.9 1.9-2.3 2.6-4.3 1.1-3.7 3.3-7 6.3-9.4 3-2.5 6.9-3.6 11.5-3.6s9 1.3 12 4 4.4 6.9 4.4 12.2c0 2.4-.4 4.7-1.1 6.9-.8 2.1-2.1 4-3.9 5.4-2.3 1.7-4.8 2.8-7.5 3.4-3.9 1-7.9 1.4-11.9 1.4v13.8c5.8 0 10.4.4 13.8 1.4 3.4.9 6.1 2.1 7.9 3.7 1.8 1.5 3.1 3.4 3.6 5.6.6 2.5 1 4.9.9 7.5 0 2.2-.4 4.4-1.2 6.4-.9 2.2-2.1 4.1-3.8 5.7-1.8 1.8-3.8 3.3-6.1 4.2-2.7 1.1-5.7 1.7-8.6 1.6-2.5.1-5.2-.4-7.6-1.3-2-.8-3.9-1.9-5.5-3.3s-2.9-3-4-4.7-2.1-3.6-3.2-5.4c-.5-1.1-1.4-1.9-2.5-2.5-1.1-.6-2.4-1-3.7-.9-1.5 0-3.1.4-4.5 1l-8.6 3.5c1.4 4.5 3.3 8.8 5.6 12.8 2 3.6 4.7 6.8 8 9.4 3.3 2.6 7 4.7 11.1 5.8 4.8 1.4 9.8 2 14.9 2s10.1-.8 14.9-2.3c4.5-1.4 8.7-3.7 12.3-6.8 3.6-3 6.5-6.7 8.5-11 2.2-4.7 3.3-9.8 3.2-15 0-6.7-1.7-12.1-5.1-16.5-3.3-4.5-8.4-7.7-15.2-9.8 2.6-.8 5.2-2 7.6-3.5 2.2-1.3 4.1-3.2 5.6-5.2 1.6-2.1 2.8-4.6 3.5-7.1.9-3.1 1.3-6.3 1.2-9.6 0-4-.8-7.9-2.4-11.6-1.6-3.6-4-6.8-6.9-9.3-3.2-2.7-6.9-4.8-10.8-6.2-4.3-1.5-9.2-2.2-13.9-2.2z"/></svg>