<svg id="Layer_1" data-name="Layer 1" xmlns="http://www.w3.org/2000/svg" viewBox="0 0 120.8 117.8"><defs><style>.cls-2{fill:#191717}</style></defs><path d="M63 3a60 60 0 00-19 117c3 1 4-1 4-3v-11c-17 4-21-7-21-7-2-7-6-9-6-9-6-4 0-4 0-4 6 1 9 7 9 7 6 9 15 6 18 5 1-4 2-7 4-8-14-2-28-7-28-30a23 23 0 017-16c-1-2-3-8 0-16 0 0 5-2 17 6a57 57 0 0130 0c12-8 17-6 17-6 3 8 1 14 0 16a23 23 0 016 16c0 23-14 28-27 30 2 1 4 5 4 11v16c0 2 1 4 4 3A60 60 0 0063 3z" transform="translate(-2 -2)" fill-rule="evenodd" fill="#191717"/><path class="cls-2" d="M25 89a1 1 0 01-1 0l1-1v1zM28 92h-1a1 1 0 01-1-2l2 1v1zM30 95h-1a1 1 0 010-2l1 1a1 1 0 010 1zM34 99a1 1 0 01-2-1 1 1 0 01-1-1h2a1 1 0 011 2zM38 101a1 1 0 01-1 0l-1-1a1 1 0 011 0l1 1zM43 101l-1 1-2-1 2-1 1 1zM48 100l-2 1h-1l1-1a1 1 0 012 0z" transform="translate(-2 -2)"/></svg>