<svg id="Layer_1" data-name="Layer 1" xmlns="http://www.w3.org/2000/svg" viewBox="0 0 569.9 524.9"><defs><style>.cls-1{fill:#e24329}.cls-2{fill:#fca326}.cls-3{fill:#fc6d26}</style></defs><g id="logo_art" data-name="logo art"><path id="path50" class="cls-1" d="M287 527l105-322H183l104 322z" transform="translate(-2 -2)"/><path id="path66" class="cls-2" d="M36 205L4 303a22 22 0 007 24l276 200L36 205z" transform="translate(-2 -2)"/><path id="path74" class="cls-1" d="M36 205h147L119 10c-3-10-17-10-20 0L36 205z" transform="translate(-2 -2)"/><path id="path82" class="cls-2" d="M540 205l31 98a22 22 0 01-8 24L288 527l253-322z" transform="translate(-2 -2)"/><path id="path86" class="cls-1" d="M540 205H392l64-195a11 11 0 0120 0l64 195z" transform="translate(-2 -2)"/><path class="cls-3" d="M285 525l105-323h147L285 525zM285 525L33 202h147l105 323z"/></g></svg>