<svg xmlns="http://www.w3.org/2000/svg" viewBox="0 0 61 65"><defs><linearGradient id="a" x1="30.5" x2="30.5" y1="65" y2="0" gradientUnits="userSpaceOnUse"><stop offset="0" stop-color="#6364ff"/><stop offset="1" stop-color="#563acc"/></linearGradient></defs><path fill="url(#a)" d="M60.75 14.39C59.81 7.41 53.73 1.9 46.51.84 45.29.66 40.68 0 30 0h-.08c-10.69 0-12.98.66-14.2.84C8.7 1.87 2.3 6.82.74 13.89 0 17.37-.08 21.22.06 24.76c.19 5.08.23 10.14.69 15.2.32 3.36.88 6.69 1.67 9.97 1.47 6.05 7.45 11.09 13.31 13.15 6.28 2.14 13.02 2.5 19.49 1.03.71-.17 1.41-.36 2.11-.58 1.57-.5 3.41-1.06 4.76-2.04.02-.01.04-.03.05-.05s.01-.04.01-.06v-4.9s0-.05-.01-.06c-.01-.02-.03-.04-.04-.05-.02-.02-.04-.03-.06-.03-.02-.01-.04-.01-.06 0-4.15.99-8.39 1.48-12.65 1.48-7.33 0-9.3-3.48-9.86-4.93-.45-1.25-.74-2.56-.86-3.88 0-.02.01-.05.01-.07.01-.02.03-.03.04-.05l.06-.03h.07c4.07.99 8.25 1.48 12.44 1.48 1 0 2.01 0 3.02-.03 4.21-.11 8.65-.33 12.8-1.14.1-.02.2-.04.29-.06 6.54-1.26 12.76-5.2 13.4-15.18.02-.39.08-4.12.08-4.52 0-1.39.45-9.83-.07-15.02Zm-10.36 25.2h-6.87V22.75c0-3.55-1.48-5.36-4.48-5.36-3.31 0-4.96 2.14-4.96 6.37v9.22h-6.84v-9.22c0-4.23-1.65-6.37-4.96-6.37-2.99 0-4.48 1.81-4.48 5.36v16.84h-6.87V22.24c0-3.55.91-6.36 2.72-8.45 1.86-2.09 4.31-3.15 7.35-3.15 3.52 0 6.18 1.35 7.95 4.05l1.72 2.87 1.71-2.87c1.77-2.7 4.43-4.05 7.94-4.05 3.04 0 5.49 1.06 7.36 3.15 1.81 2.08 2.72 4.9 2.71 8.45v17.35Z"/></svg>