<svg id="Layer_1" data-name="Layer 1" xmlns="http://www.w3.org/2000/svg" viewBox="0 0 64 54.4"><defs><style>.cls-1{fill:#fff;opacity:.5;isolation:isolate}</style></defs><path class="cls-1" d="M52 40h-5-1V27a3 3 0 000-2h-1a5 5 0 00-1-1 3 3 0 00-2 1 2 2 0 00-1 1 3 3 0 00-1 1 10 10 0 000 2v11h-5-1V27a3 3 0 000-1 2 2 0 00-1-1 3 3 0 00-2-1l-2 1a3 3 0 000 1 4 4 0 00-1 2v12h-6V20h6v2a9 9 0 012-2 9 9 0 013-1 8 8 0 014 1 6 6 0 012 2 13 13 0 012-2 6 6 0 014-1 9 9 0 013 1 6 6 0 012 1 5 5 0 012 2 10 10 0 010 4v13z" transform="translate(-2 -2)"/><path class="cls-1" d="M27 20v3a9 9 0 013-2 8 8 0 013-1 8 8 0 014 0 4 4 0 012 3 10 10 0 012-2 6 6 0 014-1 9 9 0 013 0 5 5 0 012 1 6 6 0 011 2 9 9 0 011 4v13h-5V27a8 8 0 00-1-2 2 2 0 00-1-1 4 4 0 00-2 0 3 3 0 00-1 0 3 3 0 00-1 1 3 3 0 00-1 2 11 11 0 000 2v11h-5V27a8 8 0 00-1-1 3 3 0 00-1-2 3 3 0 00-2 0 2 2 0 00-1 0 2 2 0 00-1 1 6 6 0 00-1 1 6 6 0 000 2v12h-6V20z" transform="translate(-2 -2)"/><path d="M4 4v52h4v1H3V3h5v1zm21 16v3a9 9 0 012-2 8 8 0 014-1 8 8 0 013 0 4 4 0 012 3 8 8 0 013-2 6 6 0 013-1 9 9 0 013 0 5 5 0 012 1 5 5 0 012 2 11 11 0 010 4v13h-5V27a3 3 0 000-2 2 2 0 00-1-1 3 3 0 00-2 0 4 4 0 00-2 0l-1 1a8 8 0 00-1 2 11 11 0 000 2v11h-5V27a4 4 0 000-1 3 3 0 00-1-2 3 3 0 00-2 0h-1a3 3 0 00-2 1 6 6 0 000 1 6 6 0 00-1 2v12h-5V20zm40 36V4h-4V3h5v54h-5v-1z" transform="translate(-2 -2)"/></svg>