<svg xmlns="http://www.w3.org/2000/svg" viewBox="0 0 500 500"><circle cx="250" cy="250" r="250" fill="#0f57a5"/><path fill="#fff" d="M379.1 217.1c1.4-1 3.2-.7 4.3.7.4.5.5 1.1.6 1.8v102.9c0 13.3-10.8 24.2-24.1 24.2H150.2c-13.3 0-24.1-10.8-24.1-24.1v-103c0-1.7 1.3-3 3-3.1.7 0 1.4.2 1.9.6 11.3 8.8 26.3 19.9 77.6 57.2 10.6 7.8 28.5 24.1 46.4 24s36.2-16.6 46.5-24c51.4-37.2 66.3-48.4 77.6-57.2zM255 282.3c11.7.2 28.5-14.7 37-20.9 66.8-48.5 71.9-52.8 87.3-64.8 2.9-2.3 4.6-5.8 4.6-9.5v-9.6c0-13.3-10.8-24.2-24.1-24.2H150.2c-13.3 0-24.1 10.8-24.1 24.1v9.7c0 3.7 1.7 7.2 4.6 9.5 15.4 12 20.5 16.3 87.3 64.8 8.5 6.1 25.3 21.1 37 20.9z"/></svg>