<svg xmlns="http://www.w3.org/2000/svg" viewBox="0 0 158.77 157.6"><path fill="#662482" d="M158.77 68.69v83.23c0 3.13-2.54 5.67-5.67 5.67H85.06c-3.13 0-5.67-2.54-5.67-5.67v-15.5c.31-19 2.32-37.2 6.54-45.48 2.53-4.98 6.7-7.69 11.49-9.14 9.05-2.72 24.93-.86 31.67-1.18 0 0 20.36.81 20.36-10.72 0-9.28-9.1-8.55-9.1-8.55-10.03.26-17.67-.42-22.62-2.37-8.29-3.26-8.57-9.24-8.6-11.24-.41-23.1-34.47-25.87-64.48-20.14-32.81 6.24.36 53.27.36 116.05v8.38c-.06 3.08-2.55 5.57-5.65 5.57H5.67c-3.13 0-5.67-2.54-5.67-5.67V7.98c0-3.13 2.54-5.67 5.67-5.67h31.67c3.13 0 5.67 2.54 5.67 5.67 0 4.65 5.23 7.24 9.01 4.53C63.41 4.35 78.03 0 94.39 0c36.65 0 64.36 21.36 64.36 68.69h.02ZM97.93 51.8c0-6.7-5.43-12.13-12.13-12.13S73.67 45.1 73.67 51.8 79.1 63.93 85.8 63.93 97.93 58.5 97.93 51.8Z"/></svg>