<svg xmlns="http://www.w3.org/2000/svg" id="Layer_1" data-name="Layer 1" viewBox="0 0 457.9 400.8"><defs><style>.cls-1{fill:#ccc}.cls-2{fill:#020202}</style></defs><path d="M455 273.7c-21.6-36.2-59.9-56.7-97.4-52.2-33 4.1-53.7 26.2-59.7 33.2.1-1.1.6-38.6 36.1-54.5 0 0 41.6-19.1 91.2 22.5a125.3 125.3 0 0111.3 12.9 116.1 116.1 0 0118.5 38.1zM45 273.7c21.7-36.2 60-56.7 97.4-52.2 33.1 4.1 53.7 26.2 59.7 33.2-.1-1.1-.5-38.6-36.1-54.5 0 0-41.6-19.1-91.2 22.5a125.1 125.1 0 00-11.2 12.9A116.6 116.6 0 0045 273.7z" class="cls-1" transform="translate(-21.1 -34.7)"/><path d="M465.3 354.5c-3.4-58.3-7.8-70.8-7.8-70.8-8.2-40-32.3-60.9-32.3-60.9-49.6-41.6-91.1-22.5-91.1-22.5-32.4 13.7-35 48.4-35 48.4-6 24 3.8 46.9 3.8 46.9 2.7 7.6 19.8 45.5 19.8 45.5L250 257.7l-72.7 83.4s17.1-37.9 19.8-45.5c0 0 9.8-22.9 3.8-46.9 0 0-2.6-34.7-35-48.4 0 0-41.5-19.1-91.1 22.5 0 0-24.1 20.9-32.3 60.9 0 0-4.4 12.5-7.8 70.8 0 0-18.7-31.6-12.3-96.3 0 0 3.4-90.5 87.1-155.9a230.6 230.6 0 0157.3-32.6h.1c42-19.1 95.1-35 95.1-35L251 54h-.1a228.4 228.4 0 01139.6 48.2c83.7 65.4 87.1 155.9 87.1 155.9 6.4 64.8-12.3 96.4-12.3 96.4z" transform="translate(-21.1 -34.7)"/><path d="M416.3 302.9a33.4 33.4 0 01-66.8 0 34.3 34.3 0 012.5-12.8 13.1 13.1 0 0010.5 5.3 13 13 0 0012.9-13 13.3 13.3 0 00-5.2-10.4 33.4 33.4 0 0146.1 30.9zM151.5 302.9a33.4 33.4 0 01-66.8 0 34.3 34.3 0 012.5-12.8 12.8 12.8 0 0010.4 5.3 13 13 0 007.7-23.4 33.9 33.9 0 0112.8-2.5 33.4 33.4 0 0133.4 33.4z" class="cls-2" transform="translate(-21.1 -34.7)"/><path fill="#f09b24" d="M228.9 237.3v60.6l-72.6 23.3 72.6-83.9z"/><path fill="#ef5928" d="M156.3 321.2l72.6 30.4v-53.7l-72.6 23.3z"/><path fill="#d55a31" d="M228.9 237.3v60.6l72.6 23.3-72.6-83.9z"/><path fill="#b43218" d="M301.5 321.2l-72.6 30.4v-53.7l72.6 23.3z"/><path fill="#ed6826" d="M228.9 361.5v39.3L157 330.9l71.9 30.6z"/><path fill="#cc4a2a" d="M228.9 361.5v39.3l72-69.9-72 30.6z"/></svg>