<svg id="svg2" xmlns="http://www.w3.org/2000/svg" viewBox="0 0 676 683.2"><defs><clipPath id="clip-path" transform="translate(-11 -11)"><path fill="none" d="M11 11h676v683H11z"/></clipPath><style>.cls-3{fill:#244ca1}.cls-4{fill:#ee1971}.cls-5{fill:#fff}</style></defs><g id="g10"><g id="g12"><g clip-path="url(#clip-path)" id="g14"><g id="g16"><path id="path22" class="cls-3" d="M606 89a227 227 0 0044 35c27-66 37-113 37-113s-42 11-102 37l-9 4a223 223 0 0030 37" transform="translate(-11 -11)"/><path id="path24" class="cls-4" d="M460 399s28 117-32 173-136 122-136 122l-12-12s129-147 83-199l97-84" transform="translate(-11 -11)"/><path id="path26" class="cls-4" d="M306 245s-116-27-172 32S11 414 11 414l12 12s148-130 200-83l83-98" transform="translate(-11 -11)"/><path id="path28" class="cls-5" d="M607 88a218 218 0 01-30-37l-32 16a224 224 0 0038 50 226 226 0 0054 40l15-34a217 217 0 01-45-35" transform="translate(-11 -11)"/><path id="path30" class="cls-3" d="M636 156a223 223 0 01-54-40 224 224 0 01-37-49c-65 32-143 80-212 149-83 84-158 179-202 256-2 4 19 33 45 58s54 47 58 44c77-44 172-118 255-202 70-69 117-149 147-216" transform="translate(-11 -11)"/><path id="path32" class="cls-5" d="M623 63a10 10 0 01-14 0 10 10 0 011-14 10 10 0 0113 0 10 10 0 010 14" transform="translate(-11 -11)"/><path id="path34" class="cls-5" d="M652 90a10 10 0 110-15 10 10 0 010 15" transform="translate(-11 -11)"/><path id="path36" class="cls-5" d="M229 476a353 353 0 0073 55l19-13a347 347 0 01-133-133l-14 19a350 350 0 0055 72" transform="translate(-11 -11)"/><path id="path38" class="cls-4" d="M268 466a625 625 0 01-127 113l-11-11c-3-12 49-65 112-128 67-67 127-115 134-108s-41 67-108 134" transform="translate(-11 -11)"/></g></g></g></g></svg>