<svg xmlns="http://www.w3.org/2000/svg" id="Layer_1" data-name="Layer 1" viewBox="0 0 31 31.1"><defs><style>.cls-1{fill:#2196f3}</style></defs><path d="M18 6A11.8 11.8 0 006 17.5a11.5 11.5 0 004 8.6V30l3.6-1.8a13.2 13.2 0 004.4.8 11.7 11.7 0 0012-11.4A11.8 11.8 0 0018 6zM7.5 33.2l-.4-2.5h1l.3 1.8h.1l1.8-.5.2.9-2.4.7a.5.5 0 01-.6-.4zM6.7 28.9a8.4 8.4 0 00-1.3-2.7L4.6 25l.9-.5a4.1 4.1 0 00.7 1.1 14 14 0 011.5 3zm-3-5.5a14.7 14.7 0 01-1.1-4.6h1a15.8 15.8 0 001 4.3zM18.6 32.5v-1a15.6 15.6 0 004.3-.8l.3.9a17.9 17.9 0 01-4.6.9zm-1.9-.1h-.9a10.3 10.3 0 00-3.5 0l-.2-1a12.8 12.8 0 013.9 0h.8zm8.2-1.5l-.4-.9a14.5 14.5 0 003.6-2.5l.7.8a16.6 16.6 0 01-3.9 2.6zm5.2-4l-.8-.7a14.3 14.3 0 002.3-3.7l.9.4a16.3 16.3 0 01-2.4 4zm3-5.8l-1-.3a12.4 12.4 0 00.4-3.3v-1h1v1.1a13.4 13.4 0 01-.4 3.5zM3.5 17h-1a14.6 14.6 0 011-4.6l.9.4a15 15 0 00-.9 4.2zm28.7-2.3a11.6 11.6 0 00-1.6-4l.9-.6a14.9 14.9 0 011.7 4.4zM5.1 11.1l-.8-.5a14.4 14.4 0 012.8-3.7l.7.7a13.1 13.1 0 00-2.7 3.5zm24.5-1.9a12.6 12.6 0 00-3.1-3l.5-.8a13 13 0 013.4 3.2zM9.1 6.5l-.6-.8a14.1 14.1 0 014.2-2.2l.3.9a14.7 14.7 0 00-3.9 2.1zM25 5.3a15 15 0 00-4.2-1.5l.2-1a14.6 14.6 0 014.4 1.6zM14.7 3.9l-.2-1a17.8 17.8 0 014.6-.3v1a16 16 0 00-4.4.3z" class="cls-1" transform="translate(-2.5 -2.6)"/></svg>