<svg xmlns="http://www.w3.org/2000/svg" id="Layer_1" x="0" y="0" version="1.1" viewBox="0 0 36 36" xml:space="preserve"><style>.st2{fill:#b3e5fc}</style><path fill="#2196f3" d="M3 0h30c1.6-.1 2.9 1.2 3 2.8V33c.1 1.6-1.2 2.9-2.8 3H3c-1.6.1-2.9-1.2-3-2.8V3C-.1 1.4 1.2.1 2.8 0H3z"/><path fill="#fff" d="M18 6c-6.5-.1-11.8 5-12 11.5 0 3.3 1.5 6.4 4 8.6V30l3.6-1.8c1.4.5 2.9.8 4.4.8 6.5.2 11.8-4.9 12-11.4v-.1C29.8 11 24.5 5.9 18 6z"/><path d="M7.6 33.8s-.1-.5-.1-.6l-.4-2.5h1l.3 1.9 1.9-.5.2.9-2.4.7-.5.1zM6.7 28.9c-.3-1-.7-1.9-1.3-2.7L4.6 25l.9-.5c.2.4.4.8.7 1.1.6.9 1.1 1.9 1.5 3l-1 .3zm-3-5.5c-.6-1.5-1-3-1.1-4.6h1c.1 1.5.5 2.9 1 4.3l-.9.3zM18.6 32.5v-1c1.5-.1 2.9-.3 4.3-.8l.3.9c-1.5.5-3 .8-4.6.9zm-1.9-.1h-.9c-1.2-.2-2.3-.2-3.5 0l-.2-1c1.3-.2 2.6-.2 3.9 0h.8l-.1 1zm8.2-1.5l-.4-.9c1.3-.6 2.5-1.5 3.6-2.5l.7.8c-1.2 1.1-2.5 1.9-3.9 2.6zm5.2-4l-.8-.7c1-1.1 1.7-2.4 2.3-3.7l.9.4c-.6 1.4-1.4 2.8-2.4 4zm3-5.8l-1-.3c.3-1.1.4-2.2.4-3.3v-1h1v1.1c0 1.2-.1 2.4-.4 3.5zM3.5 17h-1c.1-1.6.4-3.1 1-4.6l.9.4c-.5 1.3-.8 2.8-.9 4.2zm28.7-2.3c-.3-1.4-.8-2.8-1.6-4l.9-.6c.8 1.4 1.4 2.9 1.7 4.4l-1 .2zM5.1 11.1l-.8-.5C5 9.2 6 8 7.1 6.9l.7.7c-1.1 1-2 2.2-2.7 3.5zm24.5-1.9c-.9-1.2-1.9-2.2-3.1-3l.5-.8c1.3.9 2.5 1.9 3.4 3.2l-.8.6zM9.1 6.5l-.6-.8c1.3-1 2.7-1.7 4.2-2.2l.3.9c-1.4.5-2.7 1.2-3.9 2.1zM25 5.3c-1.3-.7-2.7-1.2-4.2-1.5l.2-1c1.5.3 3 .8 4.4 1.6l-.4.9zM14.7 3.9l-.2-1c1.5-.3 3.1-.4 4.6-.3v1c-1.5-.1-3 0-4.4.3z" class="st2"/></svg>